<?xml version="1.0" encoding="UTF-8"?>
<svg width="800" height="600" viewBox="0 0 800 600" xmlns="http://www.w3.org/2000/svg">
  <style>
    .student { fill: #3b82f6; }
    .teacher { fill: #6366f1; }
    .board { fill: #1f2937; }
    .equation { fill: #ffffff; }
    @keyframes write {
      from { stroke-dashoffset: 1000; }
      to { stroke-dashoffset: 0; }
    }
    .writing {
      stroke: #ffffff;
      stroke-width: 2;
      fill: none;
      stroke-dasharray: 1000;
      animation: write 3s linear infinite;
    }
  </style>
  
  <!-- Chalkboard -->
  <rect x="100" y="50" width="600" height="400" class="board" rx="10" />
  
  <!-- Mathematical Equations -->
  <g transform="translate(150, 150)">
    <path class="writing" d="M0,0 L50,0 M25,-25 L25,25 M100,0 C150,0 150,50 100,50 C50,50 50,0 100,0" />
    <path class="equation" d="M200,0 L250,0 M225,0 L225,50 M300,25 L350,25 M325,0 L325,50" />
  </g>
  
  <!-- Teacher Figure -->
  <g transform="translate(200, 500)">
    <circle cx="0" cy="0" r="30" class="teacher" />
    <rect x="-15" y="30" width="30" height="60" class="teacher" />
  </g>
  
  <!-- Student Figures -->
  <g transform="translate(500, 500)">
    <circle cx="0" cy="0" r="25" class="student" />
    <rect x="-12" y="25" width="24" height="50" class="student" />
    <circle cx="100" cy="0" r="25" class="student" />
    <rect x="88" y="25" width="24" height="50" class="student" />
  </g>
</svg>