<?xml version="1.0" encoding="UTF-8"?>
<svg xmlns="http://www.w3.org/2000/svg" viewBox="0 0 400 300">
  <defs>
    <linearGradient id="biology-bg-gradient" x1="0%" y1="0%" x2="100%" y2="100%">
      <stop offset="0%" style="stop-color:#1e293b;stop-opacity:1" />
      <stop offset="100%" style="stop-color:#0f172a;stop-opacity:1" />
    </linearGradient>
  </defs>

  <!-- Background -->
  <rect width="100%" height="100%" fill="url(#biology-bg-gradient)" />

  <!-- DNA Double Helix -->
  <g transform="translate(200,150)">
    <!-- First Strand -->
    <path d="M-40,-80 C-20,-60 20,-40 -40,0 C-20,20 20,40 -40,80" 
          fill="none" 
          stroke="#3b82f6" 
          stroke-width="2">
      <animate
        attributeName="d"
        values="M-40,-80 C-20,-60 20,-40 -40,0 C-20,20 20,40 -40,80;
                M-40,-80 C20,-60 -20,-40 -40,0 C20,20 -20,40 -40,80;
                M-40,-80 C-20,-60 20,-40 -40,0 C-20,20 20,40 -40,80"
        dur="4s"
        repeatCount="indefinite"
      />
    </path>
    <!-- Second Strand -->
    <path d="M40,-80 C20,-60 -20,-40 40,0 C20,20 -20,40 40,80" 
          fill="none" 
          stroke="#3b82f6" 
          stroke-width="2">
      <animate
        attributeName="d"
        values="M40,-80 C20,-60 -20,-40 40,0 C20,20 -20,40 40,80;
                M40,-80 C-20,-60 20,-40 40,0 C-20,20 20,40 40,80;
                M40,-80 C20,-60 -20,-40 40,0 C20,20 -20,40 40,80"
        dur="4s"
        repeatCount="indefinite"
      />
    </path>
    
    <!-- Base Pairs -->
    <g>
      <line x1="-30" y1="-60" x2="30" y2="-60" stroke="#3b82f6" stroke-width="2">
        <animate
          attributeName="opacity"
          values="1;0.5;1"
          dur="2s"
          repeatCount="indefinite"
        />
      </line>
      <line x1="-30" y1="-20" x2="30" y2="-20" stroke="#3b82f6" stroke-width="2">
        <animate
          attributeName="opacity"
          values="0.5;1;0.5"
          dur="2s"
          repeatCount="indefinite"
        />
      </line>
      <line x1="-30" y1="20" x2="30" y2="20" stroke="#3b82f6" stroke-width="2">
        <animate
          attributeName="opacity"
          values="1;0.5;1"
          dur="2s"
          repeatCount="indefinite"
        />
      </line>
      <line x1="-30" y1="60" x2="30" y2="60" stroke="#3b82f6" stroke-width="2">
        <animate
          attributeName="opacity"
          values="0.5;1;0.5"
          dur="2s"
          repeatCount="indefinite"
        />
      </line>
    </g>
  </g>

  <!-- Cell Membrane -->
  <g transform="translate(100,100)">
    <ellipse cx="0" cy="0" rx="40" ry="20" 
             fill="none" stroke="#3b82f6" stroke-width="2">
      <animate
        attributeName="ry"
        values="20;22;20"
        dur="3s"
        repeatCount="indefinite"
      />
    </ellipse>
    <!-- Phospholipids -->
    <g>
      <circle cx="-30" cy="0" r="3" fill="#3b82f6">
        <animate
          attributeName="cy"
          values="0;2;0"
          dur="2s"
          repeatCount="indefinite"
        />
      </circle>
      <circle cx="-15" cy="0" r="3" fill="#3b82f6">
        <animate
          attributeName="cy"
          values="0;-2;0"
          dur="2s"
          repeatCount="indefinite"
        />
      </circle>
      <circle cx="0" cy="0" r="3" fill="#3b82f6">
        <animate
          attributeName="cy"
          values="0;2;0"
          dur="2s"
          repeatCount="indefinite"
        />
      </circle>
      <circle cx="15" cy="0" r="3" fill="#3b82f6">
        <animate
          attributeName="cy"
          values="0;-2;0"
          dur="2s"
          repeatCount="indefinite"
        />
      </circle>
      <circle cx="30" cy="0" r="3" fill="#3b82f6">
        <animate
          attributeName="cy"
          values="0;2;0"
          dur="2s"
          repeatCount="indefinite"
        />
      </circle>
    </g>
  </g>

  <!-- Mitochondria -->
  <g transform="translate(300,100)">
    <path d="M-30,-10 Q-20,-20 0,-10 Q20,-20 30,-10 Q20,0 30,10 Q20,20 0,10 Q-20,20 -30,10 Q-20,0 -30,-10" 
          fill="none" stroke="#3b82f6" stroke-width="2">
      <animate
        attributeName="d"
        values="M-30,-10 Q-20,-20 0,-10 Q20,-20 30,-10 Q20,0 30,10 Q20,20 0,10 Q-20,20 -30,10 Q-20,0 -30,-10;
                M-30,-12 Q-20,-22 0,-12 Q20,-22 30,-12 Q20,2 30,12 Q20,22 0,12 Q-20,22 -30,12 Q-20,2 -30,-12;
                M-30,-10 Q-20,-20 0,-10 Q20,-20 30,-10 Q20,0 30,10 Q20,20 0,10 Q-20,20 -30,10 Q-20,0 -30,-10"
        dur="3s"
        repeatCount="indefinite"
      />
    </path>
    <!-- Inner Membrane -->
    <path d="M-15,-5 Q-10,-10 0,-5 Q10,-10 15,-5 Q10,0 15,5 Q10,10 0,5 Q-10,10 -15,5 Q-10,0 -15,-5" 
          fill="none" stroke="#3b82f6" stroke-width="1" opacity="0.5">
      <animate
        attributeName="opacity"
        values="0.5;0.8;0.5"
        dur="2s"
        repeatCount="indefinite"
      />
    </path>
  </g>
</svg> 